Chivo-Black Italic.ufo
<glyph name="exclam" format="1">
  <advance width="315"/>
  <unicode hex="0021"/>
  <outline>
    <contour>
      <point x="88" y="686" type="line"/>
      <point x="88" y="231" type="line"/>
      <point x="215" y="231" type="line"/>
      <point x="336" y="686" type="line"/>
    </contour>
    <contour>
      <point x="51" y="183" type="line"/>
      <point x="25" y="0" type="line"/>
      <point x="216" y="0" type="line"/>
      <point x="242" y="183" type="line"/>
    </contour>
  </outline>
</glyph>
<glyph name="asterisk" format="1">
  <advance width="506"/>
  <unicode hex="002A"/>
  <outline>
    <contour>
      <point x="247" y="686" type="line"/>
      <point x="247" y="533" type="line"/>
      <point x="107" y="593" type="line"/>
      <point x="53" y="483" type="line"/>
      <point x="195" y="448" type="line"/>
      <point x="79" y="335" type="line"/>
      <point x="169" y="265" type="line"/>
      <point x="265" y="396" type="line"/>
      <point x="326" y="265" type="line"/>
      <point x="436" y="335" type="line"/>
      <point x="352" y="448" type="line"/>
      <point x="507" y="483" type="line"/>
      <point x="487" y="593" type="line"/>
      <point x="331" y="533" type="line"/>
      <point x="367" y="686" type="line"/>
    </contour>
  </outline>
</glyph>
<glyph name="slash" format="1">
  <advance width="541"/>
  <unicode hex="002F"/>
  <outline>
    <contour>
      <point x="446" y="686" type="line"/>
      <point x="-44" y="-171" type="line"/>
      <point x="88" y="-171" type="line"/>
      <point x="577" y="686" type="line"/>
    </contour>
  </outline>
</glyph>
<glyph name="three" format="1">
  <advance width="615"/>
  <unicode hex="0033"/>
  <outline>
    <contour>
      <point x="351" y="696" type="line" smooth="yes"/>
      <point x="198" y="696"/>
      <point x="71" y="608"/>
      <point x="71" y="484" type="curve"/>
      <point x="238" y="484" type="line"/>
      <point x="243" y="519"/>
      <point x="278" y="547"/>
      <point x="317" y="547" type="curve" smooth="yes"/>
      <point x="335" y="547" type="line" smooth="yes"/>
      <point x="371" y="547"/>
      <point x="396" y="523"/>
      <point x="396" y="492" type="curve" smooth="yes"/>
      <point x="396" y="437"/>
      <point x="354" y="412"/>
      <point x="316" y="412" type="curve" smooth="yes"/>
      <point x="228" y="412" type="line"/>
      <point x="211" y="289" type="line"/>
      <point x="315" y="289" type="line" smooth="yes"/>
      <point x="350" y="289"/>
      <point x="376" y="270"/>
      <point x="376" y="231" type="curve" smooth="yes"/>
      <point x="376" y="175"/>
      <point x="341" y="139"/>
      <point x="284" y="139" type="curve" smooth="yes"/>
      <point x="257" y="139" type="line" smooth="yes"/>
      <point x="206" y="139"/>
      <point x="186" y="163"/>
      <point x="186" y="196" type="curve" smooth="yes"/>
      <point x="186" y="201"/>
      <point x="186" y="206"/>
      <point x="187" y="209" type="curve"/>
      <point x="12" y="209" type="line"/>
      <point x="9" y="192" type="line"/>
      <point x="8" y="181"/>
      <point x="7" y="172"/>
      <point x="7" y="161" type="curve" smooth="yes"/>
      <point x="7" y="64"/>
      <point x="85" y="-10"/>
      <point x="240" y="-10" type="curve" smooth="yes"/>
      <point x="282" y="-10" type="line" smooth="yes"/>
      <point x="440" y="-10"/>
      <point x="572" y="72"/>
      <point x="572" y="221" type="curve" smooth="yes"/>
      <point x="572" y="289"/>
      <point x="539" y="336"/>
      <point x="479" y="359" type="curve"/>
      <point x="544" y="385"/>
      <point x="596" y="454"/>
      <point x="596" y="532" type="curve" smooth="yes"/>
      <point x="596" y="623"/>
      <point x="514" y="696"/>
      <point x="381" y="696" type="curve" smooth="yes"/>
    </contour>
  </outline>
</glyph>
<glyph name="six" format="1">
  <advance width="615"/>
  <unicode hex="0036"/>
  <outline>
    <contour>
      <point x="354" y="696" type="line" smooth="yes"/>
      <point x="211" y="696"/>
      <point x="78" y="590"/>
      <point x="59" y="446" type="curve"/>
      <point x="27" y="228"/>
      <point x="28" y="220"/>
      <point x="28" y="205" type="curve" smooth="yes"/>
      <point x="28" y="80"/>
      <point x="123" y="-10"/>
      <point x="255" y="-10" type="curve" smooth="yes"/>
      <point x="283" y="-10" type="line" smooth="yes"/>
      <point x="437" y="-10"/>
      <point x="577" y="93"/>
      <point x="577" y="265" type="curve" smooth="yes"/>
      <point x="577" y="379"/>
      <point x="493" y="437"/>
      <point x="380" y="437" type="curve" smooth="yes"/>
      <point x="343" y="437"/>
      <point x="288" y="422"/>
      <point x="247" y="385" type="curve"/>
      <point x="259" y="471" type="line"/>
      <point x="266" y="512"/>
      <point x="306" y="546"/>
      <point x="347" y="546" type="curve" smooth="yes"/>
      <point x="353" y="546" type="line" smooth="yes"/>
      <point x="388" y="546"/>
      <point x="413" y="522"/>
      <point x="414" y="487" type="curve"/>
      <point x="413" y="466" type="line"/>
      <point x="591" y="466" type="line"/>
      <point x="593" y="479"/>
      <point x="594" y="492"/>
      <point x="594" y="505" type="curve" smooth="yes"/>
      <point x="594" y="631"/>
      <point x="499" y="696"/>
      <point x="382" y="696" type="curve" smooth="yes"/>
    </contour>
    <contour>
      <point x="356" y="321"/>
      <point x="385" y="297"/>
      <point x="385" y="256" type="curve"/>
      <point x="378" y="205" type="line"/>
      <point x="375" y="164"/>
      <point x="334" y="130"/>
      <point x="293" y="130" type="curve" smooth="yes"/>
      <point x="287" y="130" type="line" smooth="yes"/>
      <point x="248" y="130"/>
      <point x="221" y="158"/>
      <point x="221" y="194" type="curve" smooth="yes"/>
      <point x="221" y="199" type="line" smooth="yes"/>
      <point x="221" y="201"/>
      <point x="221" y="203"/>
      <point x="222" y="205" type="curve"/>
      <point x="228" y="246" type="line" smooth="yes"/>
      <point x="234" y="287"/>
      <point x="273" y="321"/>
      <point x="313" y="321" type="curve" smooth="yes"/>
      <point x="319" y="321" type="line" smooth="yes"/>
    </contour>
  </outline>
</glyph>
<glyph name="seven" format="1">
  <advance width="615"/>
  <unicode hex="0037"/>
  <outline>
    <contour>
      <point x="116" y="686" type="line"/>
      <point x="92" y="514" type="line"/>
      <point x="384" y="514" type="line"/>
      <point x="250" y="367"/>
      <point x="114" y="191"/>
      <point x="87" y="0" type="curve"/>
      <point x="309" y="0" type="line"/>
      <point x="318" y="59" type="line" smooth="yes"/>
      <point x="349" y="263"/>
      <point x="476" y="437"/>
      <point x="612" y="595" type="curve"/>
      <point x="625" y="686" type="line"/>
    </contour>
  </outline>
</glyph>
<glyph name="eight" format="1">
  <advance width="615"/>
  <unicode hex="0038"/>
  <outline>
    <contour>
      <point x="218" y="696"/>
      <point x="87" y="612"/>
      <point x="87" y="464" type="curve" smooth="yes"/>
      <point x="87" y="408"/>
      <point x="112" y="380"/>
      <point x="147" y="351" type="curve"/>
      <point x="146" y="347" type="line"/>
      <point x="75" y="308"/>
      <point x="21" y="260"/>
      <point x="21" y="161" type="curve" smooth="yes"/>
      <point x="21" y="49"/>
      <point x="118" y="-10"/>
      <point x="264" y="-10" type="curve" smooth="yes"/>
      <point x="495" y="-10"/>
      <point x="564" y="118"/>
      <point x="564" y="218" type="curve" smooth="yes"/>
      <point x="564" y="281"/>
      <point x="532" y="315"/>
      <point x="483" y="347" type="curve"/>
      <point x="484" y="351" type="line"/>
      <point x="535" y="386"/>
      <point x="584" y="429"/>
      <point x="584" y="524" type="curve" smooth="yes"/>
      <point x="584" y="635"/>
      <point x="488" y="696"/>
      <point x="363" y="696" type="curve" smooth="yes"/>
    </contour>
    <contour>
      <point x="344" y="295"/>
      <point x="368" y="269"/>
      <point x="368" y="234" type="curve"/>
      <point x="363" y="192" type="line"/>
      <point x="356" y="153"/>
      <point x="323" y="122"/>
      <point x="283" y="122" type="curve" smooth="yes"/>
      <point x="246" y="122"/>
      <point x="221" y="147"/>
      <point x="221" y="182" type="curve" smooth="yes"/>
      <point x="221" y="187"/>
      <point x="221" y="190"/>
      <point x="222" y="192" type="curve"/>
      <point x="227" y="225" type="line" smooth="yes"/>
      <point x="233" y="264"/>
      <point x="268" y="295"/>
      <point x="307" y="295" type="curve" smooth="yes"/>
    </contour>
    <contour>
      <point x="382" y="566"/>
      <point x="406" y="540"/>
      <point x="406" y="505" type="curve"/>
      <point x="403" y="473" type="line" smooth="yes"/>
      <point x="399" y="434"/>
      <point x="361" y="403"/>
      <point x="323" y="403" type="curve" smooth="yes"/>
      <point x="287" y="403"/>
      <point x="261" y="427"/>
      <point x="261" y="462" type="curve" smooth="yes"/>
      <point x="261" y="467"/>
      <point x="261" y="470"/>
      <point x="262" y="473" type="curve" smooth="yes"/>
      <point x="265" y="496" type="line" smooth="yes"/>
      <point x="270" y="535"/>
      <point x="306" y="566"/>
      <point x="345" y="566" type="curve" smooth="yes"/>
    </contour>
  </outline>
</glyph>
<glyph name="equal" format="1">
  <advance width="615"/>
  <unicode hex="003D"/>
  <outline>
    <contour>
      <point x="71" y="429" type="line"/>
      <point x="53" y="301" type="line"/>
      <point x="565" y="301" type="line"/>
      <point x="583" y="429" type="line"/>
    </contour>
    <contour>
      <point x="40" y="209" type="line"/>
      <point x="22" y="81" type="line"/>
      <point x="534" y="81" type="line"/>
      <point x="552" y="209" type="line"/>
    </contour>
  </outline>
</glyph>
<glyph name="question" format="1">
  <advance width="583"/>
  <unicode hex="003F"/>
  <outline>
    <contour>
      <point x="332" y="696" type="line" smooth="yes"/>
      <point x="193" y="696"/>
      <point x="72" y="616"/>
      <point x="52" y="485" type="curve" smooth="yes"/>
      <point x="50" y="472"/>
      <point x="49" y="460"/>
      <point x="49" y="447" type="curve"/>
      <point x="233" y="447" type="line"/>
      <point x="238" y="496"/>
      <point x="245" y="558"/>
      <point x="313" y="558" type="curve" smooth="yes"/>
      <point x="348" y="558"/>
      <point x="370" y="531"/>
      <point x="370" y="498" type="curve" smooth="yes"/>
      <point x="369" y="403"/>
      <point x="222" y="359"/>
      <point x="210" y="277" type="curve" smooth="yes"/>
      <point x="201" y="218" type="line"/>
      <point x="372" y="218" type="line"/>
      <point x="375" y="240" type="line" smooth="yes"/>
      <point x="382" y="295"/>
      <point x="582" y="329"/>
      <point x="582" y="509" type="curve" smooth="yes"/>
      <point x="582" y="621"/>
      <point x="485" y="696"/>
      <point x="370" y="696" type="curve" smooth="yes"/>
    </contour>
    <contour>
      <point x="191" y="183" type="line"/>
      <point x="166" y="0" type="line"/>
      <point x="357" y="0" type="line"/>
      <point x="382" y="183" type="line"/>
    </contour>
  </outline>
</glyph>
<glyph name="B" format="1">
  <advance width="656"/>
  <unicode hex="0042"/>
  <outline>
    <contour>
      <point x="113" y="686" type="line"/>
      <point x="16" y="0" type="line"/>
      <point x="398" y="0" type="line" smooth="yes"/>
      <point x="533" y="0"/>
      <point x="616" y="109"/>
      <point x="616" y="218" type="curve" smooth="yes"/>
      <point x="616" y="302"/>
      <point x="568" y="339"/>
      <point x="507" y="354" type="curve"/>
      <point x="508" y="358" type="line"/>
      <point x="572" y="377"/>
      <point x="646" y="424"/>
      <point x="646" y="540" type="curve" smooth="yes"/>
      <point x="646" y="622"/>
      <point x="581" y="686"/>
      <point x="489" y="686" type="curve" smooth="yes"/>
    </contour>
    <contour>
      <point x="400" y="277"/>
      <point x="418" y="259"/>
      <point x="418" y="234" type="curve"/>
      <point x="416" y="209" type="line" smooth="yes"/>
      <point x="414" y="181"/>
      <point x="385" y="159"/>
      <point x="359" y="159" type="curve" smooth="yes"/>
      <point x="232" y="159" type="line"/>
      <point x="248" y="277" type="line"/>
      <point x="375" y="277" type="line" smooth="yes"/>
    </contour>
    <contour>
      <point x="425" y="540"/>
      <point x="443" y="522"/>
      <point x="443" y="497" type="curve"/>
      <point x="441" y="473" type="line" smooth="yes"/>
      <point x="439" y="445"/>
      <point x="410" y="423"/>
      <point x="384" y="423" type="curve" smooth="yes"/>
      <point x="269" y="423" type="line"/>
      <point x="285" y="540" type="line"/>
      <point x="400" y="540" type="line" smooth="yes"/>
    </contour>
  </outline>
</glyph>
<glyph name="E" format="1">
  <advance width="600"/>
  <unicode hex="0045"/>
  <outline>
    <contour>
      <point x="113" y="686" type="line"/>
      <point x="16" y="0" type="line"/>
      <point x="531" y="0" type="line"/>
      <point x="531" y="164" type="line"/>
      <point x="245" y="164" type="line"/>
      <point x="261" y="275" type="line"/>
      <point x="539" y="275" type="line"/>
      <point x="560" y="428" type="line"/>
      <point x="282" y="428" type="line"/>
      <point x="297" y="528" type="line"/>
      <point x="586" y="528" type="line"/>
      <point x="628" y="686" type="line"/>
    </contour>
    <contour>
      <point x="510" y="10" type="move" name="ogonek"/>
    </contour>
    <contour>
      <point x="300" y="0" type="move" name="bottom"/>
    </contour>
    <contour>
      <point x="350" y="686" type="move" name="top"/>
    </contour>
  </outline>
</glyph>
<glyph name="G" format="1">
  <advance width="699"/>
  <unicode hex="0047"/>
  <outline>
    <contour>
      <point x="407" y="696" type="line" smooth="yes"/>
      <point x="199" y="696"/>
      <point x="69" y="562"/>
      <point x="46" y="396" type="curve" smooth="yes"/>
      <point x="31" y="290" type="line" smooth="yes"/>
      <point x="29" y="274"/>
      <point x="28" y="259"/>
      <point x="28" y="244" type="curve" smooth="yes"/>
      <point x="28" y="100"/>
      <point x="125" y="-10"/>
      <point x="275" y="-10" type="curve" smooth="yes"/>
      <point x="285" y="-10" type="line" smooth="yes"/>
      <point x="385" y="-10"/>
      <point x="443" y="25"/>
      <point x="493" y="73" type="curve"/>
      <point x="510" y="0" type="line"/>
      <point x="622" y="0" type="line"/>
      <point x="622" y="29"/>
      <point x="624" y="74"/>
      <point x="636" y="144" type="curve"/>
      <point x="669" y="384" type="line"/>
      <point x="359" y="384" type="line"/>
      <point x="340" y="248" type="line"/>
      <point x="456" y="248" type="line"/>
      <point x="447" y="185"/>
      <point x="411" y="147"/>
      <point x="355" y="147" type="curve" smooth="yes"/>
      <point x="337" y="147" type="line" smooth="yes"/>
      <point x="286" y="147"/>
      <point x="250" y="184"/>
      <point x="250" y="233" type="curve" smooth="yes"/>
      <point x="250" y="240" type="line" smooth="yes"/>
      <point x="250" y="242"/>
      <point x="250" y="244"/>
      <point x="251" y="247" type="curve"/>
      <point x="278" y="440" type="line" smooth="yes"/>
      <point x="286" y="496"/>
      <point x="328" y="540"/>
      <point x="392" y="540" type="curve" smooth="yes"/>
      <point x="397" y="540" type="line" smooth="yes"/>
      <point x="446" y="540"/>
      <point x="484" y="516"/>
      <point x="484" y="459" type="curve" smooth="yes"/>
      <point x="484" y="449" type="line" smooth="yes"/>
      <point x="484" y="446"/>
      <point x="484" y="442"/>
      <point x="483" y="439" type="curve"/>
      <point x="677" y="439" type="line"/>
      <point x="678" y="446" type="line" smooth="yes"/>
      <point x="679" y="457"/>
      <point x="680" y="468"/>
      <point x="680" y="479" type="curve" smooth="yes"/>
      <point x="680" y="607"/>
      <point x="573" y="696"/>
      <point x="435" y="696" type="curve" smooth="yes"/>
    </contour>
    <contour>
      <point x="410" y="686" type="move" name="top"/>
    </contour>
    <contour>
      <point x="350" y="0" type="move" name="bottom"/>
    </contour>
  </outline>
</glyph>
<glyph name="H" format="1">
  <advance width="697"/>
  <unicode hex="0048"/>
  <outline>
    <contour>
      <point x="485" y="686" type="line"/>
      <point x="449" y="433" type="line"/>
      <point x="287" y="433" type="line"/>
      <point x="323" y="686" type="line"/>
      <point x="113" y="686" type="line"/>
      <point x="16" y="0" type="line"/>
      <point x="227" y="0" type="line"/>
      <point x="265" y="267" type="line"/>
      <point x="427" y="267" type="line"/>
      <point x="389" y="0" type="line"/>
      <point x="599" y="0" type="line"/>
      <point x="696" y="686" type="line"/>
    </contour>
    <contour>
      <point x="349" y="343" type="move" name="center"/>
    </contour>
    <contour>
      <point x="409" y="686" type="move" name="top"/>
    </contour>
  </outline>
</glyph>
<glyph name="N" format="1">
  <advance width="696"/>
  <unicode hex="004E"/>
  <outline>
    <contour>
      <point x="501" y="686" type="line"/>
      <point x="457" y="375" type="line"/>
      <point x="429" y="431" type="line"/>
      <point x="289" y="686" type="line"/>
      <point x="113" y="686" type="line"/>
      <point x="16" y="0" type="line"/>
      <point x="209" y="0" type="line"/>
      <point x="252" y="304" type="line"/>
      <point x="265" y="278" type="line" smooth="yes"/>
      <point x="271" y="265"/>
      <point x="279" y="250"/>
      <point x="282" y="246" type="curve" smooth="yes"/>
      <point x="418" y="0" type="line"/>
      <point x="598" y="0" type="line"/>
      <point x="695" y="686" type="line"/>
    </contour>
    <contour>
      <point x="428" y="686" type="move" name="top"/>
    </contour>
    <contour>
      <point x="348" y="0" type="move" name="bottom"/>
    </contour>
  </outline>
</glyph>
<glyph name="P" format="1">
  <advance width="645"/>
  <unicode hex="0050"/>
  <outline>
    <contour>
      <point x="113" y="686" type="line"/>
      <point x="16" y="0" type="line"/>
      <point x="226" y="0" type="line"/>
      <point x="261" y="244" type="line"/>
      <point x="416" y="244" type="line" smooth="yes"/>
      <point x="570" y="244"/>
      <point x="660" y="368"/>
      <point x="660" y="505" type="curve" smooth="yes"/>
      <point x="660" y="606"/>
      <point x="585" y="686"/>
      <point x="478" y="686" type="curve" smooth="yes"/>
    </contour>
    <contour>
      <point x="429" y="529"/>
      <point x="445" y="503"/>
      <point x="445" y="478" type="curve"/>
      <point x="443" y="457" type="line" smooth="yes"/>
      <point x="440" y="429"/>
      <point x="417" y="397"/>
      <point x="374" y="397" type="curve" smooth="yes"/>
      <point x="282" y="397" type="line"/>
      <point x="301" y="529" type="line"/>
      <point x="393" y="529" type="line" smooth="yes"/>
    </contour>
  </outline>
</glyph>
<glyph name="Q" format="1">
  <advance width="718"/>
  <unicode hex="0051"/>
  <outline>
    <contour>
      <point x="388" y="694" type="line" smooth="yes"/>
      <point x="206" y="694"/>
      <point x="66" y="560"/>
      <point x="45" y="394" type="curve" smooth="yes"/>
      <point x="29" y="274"/>
      <point x="28" y="261"/>
      <point x="28" y="247" type="curve" smooth="yes"/>
      <point x="28" y="118"/>
      <point x="110" y="20"/>
      <point x="232" y="-4" type="curve"/>
      <point x="237" y="-72"/>
      <point x="291" y="-162"/>
      <point x="443" y="-162" type="curve" smooth="yes"/>
      <point x="532" y="-162"/>
      <point x="590" y="-140"/>
      <point x="630" y="-120" type="curve"/>
      <point x="645" y="-15" type="line"/>
      <point x="632" y="-19" type="line" smooth="yes"/>
      <point x="605" y="-27"/>
      <point x="552" y="-39"/>
      <point x="516" y="-39" type="curve" smooth="yes"/>
      <point x="468" y="-39"/>
      <point x="451" y="-18"/>
      <point x="444" y="6" type="curve"/>
      <point x="586" y="49"/>
      <point x="668" y="157"/>
      <point x="687" y="290" type="curve"/>
      <point x="703" y="410"/>
      <point x="704" y="393"/>
      <point x="704" y="437" type="curve" smooth="yes"/>
      <point x="704" y="584"/>
      <point x="595" y="694"/>
      <point x="444" y="694" type="curve" smooth="yes"/>
    </contour>
    <contour>
      <point x="448" y="540"/>
      <point x="484" y="502"/>
      <point x="484" y="454" type="curve" smooth="yes"/>
      <point x="484" y="448"/>
      <point x="484" y="443"/>
      <point x="483" y="440" type="curve"/>
      <point x="456" y="247" type="line" smooth="yes"/>
      <point x="448" y="191"/>
      <point x="410" y="147"/>
      <point x="342" y="147" type="curve" smooth="yes"/>
      <point x="337" y="147" type="line" smooth="yes"/>
      <point x="286" y="147"/>
      <point x="250" y="184"/>
      <point x="250" y="233" type="curve" smooth="yes"/>
      <point x="250" y="240" type="line" smooth="yes"/>
      <point x="250" y="242"/>
      <point x="250" y="244"/>
      <point x="251" y="247" type="curve"/>
      <point x="278" y="440" type="line" smooth="yes"/>
      <point x="286" y="496"/>
      <point x="324" y="540"/>
      <point x="392" y="540" type="curve" smooth="yes"/>
      <point x="397" y="540" type="line" smooth="yes"/>
    </contour>
  </outline>
</glyph>
<glyph name="R" format="1">
  <advance width="682"/>
  <unicode hex="0052"/>
  <outline>
    <contour>
      <point x="112" y="686" type="line"/>
      <point x="16" y="0" type="line"/>
      <point x="221" y="0" type="line"/>
      <point x="258" y="266" type="line"/>
      <point x="316" y="266" type="line" smooth="yes"/>
      <point x="376" y="266"/>
      <point x="390" y="225"/>
      <point x="390" y="179" type="curve" smooth="yes"/>
      <point x="390" y="148"/>
      <point x="382" y="115"/>
      <point x="382" y="88" type="curve" smooth="yes"/>
      <point x="382" y="16"/>
      <point x="428" y="-10"/>
      <point x="508" y="-10" type="curve" smooth="yes"/>
      <point x="547" y="-10"/>
      <point x="591" y="-6"/>
      <point x="630" y="9" type="curve"/>
      <point x="636" y="50" type="line"/>
      <point x="605" y="58"/>
      <point x="598" y="89"/>
      <point x="598" y="122" type="curve" smooth="yes"/>
      <point x="598" y="157"/>
      <point x="605" y="185"/>
      <point x="605" y="213" type="curve" smooth="yes"/>
      <point x="605" y="278"/>
      <point x="580" y="330"/>
      <point x="517" y="349" type="curve"/>
      <point x="518" y="354" type="line"/>
      <point x="597" y="367"/>
      <point x="665" y="439"/>
      <point x="665" y="538" type="curve" smooth="yes"/>
      <point x="665" y="628"/>
      <point x="588" y="686"/>
      <point x="497" y="686" type="curve" smooth="yes"/>
    </contour>
    <contour>
      <point x="423" y="529"/>
      <point x="445" y="512"/>
      <point x="444" y="488" type="curve" smooth="yes"/>
      <point x="443" y="469" type="line"/>
      <point x="439" y="441"/>
      <point x="419" y="419"/>
      <point x="386" y="419" type="curve" smooth="yes"/>
      <point x="280" y="419" type="line"/>
      <point x="295" y="529" type="line"/>
      <point x="401" y="529" type="line" smooth="yes"/>
    </contour>
    <contour>
      <point x="341" y="686" type="move" name="top"/>
    </contour>
    <contour>
      <point x="341" y="0" type="move" name="bottom"/>
    </contour>
  </outline>
</glyph>
<glyph name="T" format="1">
  <advance width="585"/>
  <unicode hex="0054"/>
  <outline>
    <contour>
      <point x="70" y="686" type="line"/>
      <point x="47" y="521" type="line"/>
      <point x="221" y="521" type="line"/>
      <point x="147" y="0" type="line"/>
      <point x="355" y="0" type="line"/>
      <point x="429" y="521" type="line"/>
      <point x="603" y="521" type="line"/>
      <point x="626" y="686" type="line"/>
    </contour>
    <contour>
      <point x="293" y="343" type="move" name="center"/>
    </contour>
    <contour>
      <point x="251" y="0" type="move" name="bottom"/>
    </contour>
    <contour>
      <point x="343" y="686" type="move" name="top"/>
    </contour>
  </outline>
</glyph>
<glyph name="U" format="1">
  <advance width="687"/>
  <unicode hex="0055"/>
  <outline>
    <contour>
      <point x="480" y="686" type="line"/>
      <point x="415" y="221" type="line" smooth="yes"/>
      <point x="409" y="177"/>
      <point x="379" y="146"/>
      <point x="324" y="146" type="curve" smooth="yes"/>
      <point x="283" y="146"/>
      <point x="252" y="171"/>
      <point x="252" y="210" type="curve" smooth="yes"/>
      <point x="252" y="215"/>
      <point x="252" y="218"/>
      <point x="253" y="221" type="curve"/>
      <point x="318" y="686" type="line"/>
      <point x="107" y="686" type="line"/>
      <point x="42" y="218" type="line" smooth="yes"/>
      <point x="40" y="206"/>
      <point x="39" y="194"/>
      <point x="39" y="182" type="curve" smooth="yes"/>
      <point x="39" y="65"/>
      <point x="131" y="-10"/>
      <point x="280" y="-10" type="curve" smooth="yes"/>
      <point x="323" y="-10" type="line" smooth="yes"/>
      <point x="504" y="-10"/>
      <point x="604" y="80"/>
      <point x="625" y="218" type="curve"/>
      <point x="690" y="686" type="line"/>
    </contour>
    <contour>
      <point x="428" y="10" type="move" name="ogonek"/>
    </contour>
    <contour>
      <point x="404" y="686" type="move" name="top"/>
    </contour>
  </outline>
</glyph>
<glyph name="V" format="1">
  <advance width="655"/>
  <unicode hex="0056"/>
  <outline>
    <contour>
      <point x="512" y="686" type="line"/>
      <point x="333" y="260" type="line"/>
      <point x="329" y="260" type="line"/>
      <point x="269" y="686" type="line"/>
      <point x="51" y="686" type="line"/>
      <point x="159" y="0" type="line"/>
      <point x="409" y="0" type="line"/>
      <point x="714" y="686" type="line"/>
    </contour>
  </outline>
</glyph>
<glyph name="X" format="1">
  <advance width="672"/>
  <unicode hex="0058"/>
  <outline>
    <contour>
      <point x="499" y="686" type="line"/>
      <point x="379" y="511" type="line"/>
      <point x="375" y="511" type="line"/>
      <point x="305" y="686" type="line"/>
      <point x="62" y="686" type="line"/>
      <point x="209" y="363" type="line"/>
      <point x="-56" y="0" type="line"/>
      <point x="169" y="0" type="line"/>
      <point x="314" y="213" type="line"/>
      <point x="318" y="213" type="line"/>
      <point x="404" y="0" type="line"/>
      <point x="648" y="0" type="line"/>
      <point x="484" y="362" type="line"/>
      <point x="724" y="686" type="line"/>
    </contour>
  </outline>
</glyph>
<glyph name="c" format="1">
  <advance width="568"/>
  <unicode hex="0063"/>
  <outline>
    <contour>
      <point x="123" y="521"/>
      <point x="16" y="374"/>
      <point x="16" y="198" type="curve" smooth="yes"/>
      <point x="16" y="89"/>
      <point x="94" y="-10"/>
      <point x="264" y="-10" type="curve" smooth="yes"/>
      <point x="409" y="-10"/>
      <point x="512" y="68"/>
      <point x="533" y="207" type="curve"/>
      <point x="375" y="207" type="line"/>
      <point x="371" y="181" type="line" smooth="yes"/>
      <point x="366" y="150"/>
      <point x="343" y="111"/>
      <point x="288" y="111" type="curve" smooth="yes"/>
      <point x="245" y="111"/>
      <point x="221" y="136"/>
      <point x="221" y="171" type="curve" smooth="yes"/>
      <point x="221" y="187"/>
      <point x="230" y="260"/>
      <point x="243" y="330" type="curve"/>
      <point x="248" y="369"/>
      <point x="275" y="400"/>
      <point x="322" y="400" type="curve" smooth="yes"/>
      <point x="357" y="400"/>
      <point x="381" y="374"/>
      <point x="381" y="339" type="curve" smooth="yes"/>
      <point x="381" y="333"/>
      <point x="378" y="318"/>
      <point x="378" y="304" type="curve"/>
      <point x="546" y="304" type="line"/>
      <point x="548" y="316"/>
      <point x="549" y="328"/>
      <point x="549" y="340" type="curve" smooth="yes"/>
      <point x="549" y="411"/>
      <point x="513" y="521"/>
      <point x="326" y="521" type="curve" smooth="yes"/>
    </contour>
    <contour>
      <point x="324" y="511" type="move" name="top"/>
    </contour>
    <contour>
      <point x="284" y="0" type="move" name="bottom"/>
    </contour>
  </outline>
</glyph>
<glyph name="e" format="1">
  <advance width="600"/>
  <unicode hex="0065"/>
  <outline>
    <contour>
      <point x="332" y="521" type="line" smooth="yes"/>
      <point x="148" y="521"/>
      <point x="16" y="401"/>
      <point x="16" y="200" type="curve" smooth="yes"/>
      <point x="16" y="67"/>
      <point x="120" y="-10"/>
      <point x="264" y="-10" type="curve" smooth="yes"/>
      <point x="279" y="-10" type="line" smooth="yes"/>
      <point x="436" y="-10"/>
      <point x="541" y="79"/>
      <point x="557" y="192" type="curve"/>
      <point x="374" y="192" type="line"/>
      <point x="367" y="143"/>
      <point x="338" y="111"/>
      <point x="290" y="111" type="curve" smooth="yes"/>
      <point x="251" y="111"/>
      <point x="222" y="131"/>
      <point x="222" y="170" type="curve"/>
      <point x="221" y="175"/>
      <point x="224" y="191"/>
      <point x="226" y="204" type="curve" smooth="yes"/>
      <point x="230" y="229" type="line"/>
      <point x="563" y="229" type="line"/>
      <point x="568" y="266"/>
      <point x="571" y="288"/>
      <point x="572" y="303" type="curve" smooth="yes"/>
      <point x="574" y="330" type="line"/>
      <point x="574" y="443"/>
      <point x="500" y="521"/>
      <point x="357" y="521" type="curve" smooth="yes"/>
    </contour>
    <contour>
      <point x="358" y="400"/>
      <point x="382" y="374"/>
      <point x="382" y="339" type="curve" smooth="yes"/>
      <point x="382" y="327"/>
      <point x="380" y="320"/>
      <point x="380" y="316" type="curve"/>
      <point x="242" y="316" type="line"/>
      <point x="244" y="330" type="line" smooth="yes"/>
      <point x="249" y="369"/>
      <point x="283" y="400"/>
      <point x="323" y="400" type="curve" smooth="yes"/>
    </contour>
    <contour>
      <point x="360" y="10" type="move" name="ogonek"/>
    </contour>
    <contour>
      <point x="300" y="0" type="move" name="bottom"/>
    </contour>
    <contour>
      <point x="340" y="511" type="move" name="top"/>
    </contour>
  </outline>
</glyph>
<glyph name="i" format="1">
  <advance width="296"/>
  <unicode hex="0069"/>
  <outline>
    <contour>
      <point x="80" y="511" type="line"/>
      <point x="9" y="0" type="line"/>
      <point x="205" y="0" type="line"/>
      <point x="277" y="511" type="line"/>
    </contour>
    <contour>
      <point x="109" y="720" type="line"/>
      <point x="89" y="577" type="line"/>
      <point x="286" y="577" type="line"/>
      <point x="306" y="720" type="line"/>
    </contour>
  </outline>
</glyph>
<glyph name="j" format="1">
  <advance width="298"/>
  <unicode hex="006A"/>
  <outline>
    <contour>
      <point x="80" y="511" type="line"/>
      <point x="9" y="4" type="line" smooth="yes"/>
      <point x="1" y="-55"/>
      <point x="-28" y="-65"/>
      <point x="-56" y="-65" type="curve" smooth="yes"/>
      <point x="-71" y="-65"/>
      <point x="-101" y="-60"/>
      <point x="-116" y="-53" type="curve"/>
      <point x="-132" y="-165" type="line"/>
      <point x="-100" y="-178"/>
      <point x="-37" y="-187"/>
      <point x="-2" y="-187" type="curve" smooth="yes"/>
      <point x="107" y="-187"/>
      <point x="188" y="-134"/>
      <point x="203" y="-26" type="curve" smooth="yes"/>
      <point x="279" y="511" type="line"/>
    </contour>
    <contour>
      <point x="109" y="720" type="line"/>
      <point x="89" y="577" type="line"/>
      <point x="288" y="577" type="line"/>
      <point x="308" y="720" type="line"/>
    </contour>
  </outline>
</glyph>
<glyph name="k" format="1">
  <advance width="601"/>
  <unicode hex="006B"/>
  <outline>
    <contour>
      <point x="109" y="720" type="line"/>
      <point x="9" y="0" type="line"/>
      <point x="206" y="0" type="line"/>
      <point x="222" y="114" type="line"/>
      <point x="262" y="145" type="line"/>
      <point x="332" y="0" type="line"/>
      <point x="565" y="0" type="line"/>
      <point x="422" y="280" type="line"/>
      <point x="634" y="511" type="line"/>
      <point x="408" y="511" type="line"/>
      <point x="251" y="321" type="line"/>
      <point x="307" y="720" type="line"/>
    </contour>
    <contour>
      <point x="301" y="0" type="move" name="bottom"/>
    </contour>
  </outline>
</glyph>
<glyph name="p" format="1">
  <advance width="599"/>
  <unicode hex="0070"/>
  <outline>
    <contour>
      <point x="324" y="521"/>
      <point x="281" y="487"/>
      <point x="248" y="452" type="curve"/>
      <point x="238" y="511" type="line"/>
      <point x="80" y="511" type="line"/>
      <point x="-16" y="-181" type="line"/>
      <point x="181" y="-181" type="line"/>
      <point x="214" y="53" type="line"/>
      <point x="230" y="18"/>
      <point x="276" y="-10"/>
      <point x="337" y="-10" type="curve" smooth="yes"/>
      <point x="507" y="-10"/>
      <point x="572" y="178"/>
      <point x="572" y="319" type="curve" smooth="yes"/>
      <point x="572" y="455"/>
      <point x="494" y="521"/>
      <point x="387" y="521" type="curve" smooth="yes"/>
    </contour>
    <contour>
      <point x="356" y="400"/>
      <point x="378" y="381"/>
      <point x="378" y="342" type="curve" smooth="yes"/>
      <point x="378" y="333"/>
      <point x="372" y="294"/>
      <point x="367" y="257" type="curve" smooth="yes"/>
      <point x="357" y="185" type="line" smooth="yes"/>
      <point x="351" y="146"/>
      <point x="328" y="115"/>
      <point x="285" y="115" type="curve" smooth="yes"/>
      <point x="254" y="115"/>
      <point x="232" y="139"/>
      <point x="232" y="174" type="curve" smooth="yes"/>
      <point x="232" y="178"/>
      <point x="232" y="182"/>
      <point x="253" y="330" type="curve" smooth="yes"/>
      <point x="258" y="369"/>
      <point x="288" y="400"/>
      <point x="325" y="400" type="curve" smooth="yes"/>
    </contour>
  </outline>
</glyph>
<glyph name="v" format="1">
  <advance width="558"/>
  <unicode hex="0076"/>
  <outline>
    <contour>
      <point x="395" y="511" type="line"/>
      <point x="279" y="219" type="line"/>
      <point x="272" y="219" type="line"/>
      <point x="238" y="511" type="line"/>
      <point x="27" y="511" type="line"/>
      <point x="121" y="0" type="line"/>
      <point x="350" y="0" type="line"/>
      <point x="588" y="511" type="line"/>
    </contour>
  </outline>
</glyph>
<glyph name="w" format="1">
  <advance width="855"/>
  <unicode hex="0077"/>
  <outline>
    <contour>
      <point x="689" y="511" type="line"/>
      <point x="596" y="253" type="line"/>
      <point x="588" y="253" type="line"/>
      <point x="564" y="511" type="line"/>
      <point x="364" y="511" type="line"/>
      <point x="267" y="253" type="line"/>
      <point x="260" y="253" type="line"/>
      <point x="239" y="511" type="line"/>
      <point x="33" y="511" type="line"/>
      <point x="107" y="0" type="line"/>
      <point x="335" y="0" type="line"/>
      <point x="413" y="213" type="line"/>
      <point x="421" y="213" type="line"/>
      <point x="440" y="0" type="line"/>
      <point x="664" y="0" type="line"/>
      <point x="881" y="511" type="line"/>
    </contour>
    <contour>
      <point x="464" y="511" type="move" name="top"/>
    </contour>
  </outline>
</glyph>
<glyph name="z" format="1">
  <advance width="497"/>
  <unicode hex="007A"/>
  <outline>
    <contour>
      <point x="63" y="511" type="line"/>
      <point x="46" y="387" type="line"/>
      <point x="223" y="387" type="line"/>
      <point x="-10" y="63" type="line"/>
      <point x="-18" y="0" type="line"/>
      <point x="433" y="0" type="line"/>
      <point x="450" y="124" type="line"/>
      <point x="253" y="124" type="line"/>
      <point x="488" y="451" type="line"/>
      <point x="496" y="511" type="line"/>
    </contour>
    <contour>
      <point x="249" y="511" type="move" name="top"/>
    </contour>
  </outline>
</glyph>
<glyph name="braceright" format="1">
  <advance width="341"/>
  <unicode hex="007D"/>
  <outline>
    <contour>
      <point x="77" y="686" type="line"/>
      <point x="67" y="618" type="line"/>
      <point x="94" y="618"/>
      <point x="138" y="615"/>
      <point x="138" y="580" type="curve" smooth="yes"/>
      <point x="138" y="562"/>
      <point x="118" y="379"/>
      <point x="118" y="351" type="curve" smooth="yes"/>
      <point x="118" y="298"/>
      <point x="145" y="268"/>
      <point x="205" y="268" type="curve"/>
      <point x="204" y="259" type="line"/>
      <point x="137" y="259"/>
      <point x="100" y="221"/>
      <point x="88" y="156" type="curve" smooth="yes"/>
      <point x="50" y="-49" type="line" smooth="yes"/>
      <point x="43" y="-87"/>
      <point x="-4" y="-91"/>
      <point x="-31" y="-91" type="curve"/>
      <point x="-41" y="-159" type="line"/>
      <point x="39" y="-159" type="line" smooth="yes"/>
      <point x="107" y="-159"/>
      <point x="185" y="-124"/>
      <point x="196" y="-47" type="curve" smooth="yes"/>
      <point x="226" y="169" type="line" smooth="yes"/>
      <point x="231" y="209"/>
      <point x="274" y="224"/>
      <point x="310" y="224" type="curve"/>
      <point x="322" y="303" type="line"/>
      <point x="287" y="303"/>
      <point x="252" y="317"/>
      <point x="252" y="352" type="curve"/>
      <point x="253" y="359"/>
      <point x="255" y="385"/>
      <point x="260" y="418" type="curve" smooth="yes"/>
      <point x="276" y="522" type="line" smooth="yes"/>
      <point x="281" y="555"/>
      <point x="283" y="582"/>
      <point x="284" y="590" type="curve"/>
      <point x="284" y="657"/>
      <point x="221" y="686"/>
      <point x="158" y="686" type="curve" smooth="yes"/>
    </contour>
  </outline>
</glyph>
<glyph name="yen" format="1">
  <advance width="712"/>
  <unicode hex="00A5"/>
  <outline>
    <contour>
      <point x="526" y="686" type="line"/>
      <point x="389" y="461" type="line"/>
      <point x="384" y="461" type="line"/>
      <point x="313" y="686" type="line"/>
      <point x="77" y="686" type="line"/>
      <point x="168" y="457" type="line"/>
      <point x="91" y="457" type="line"/>
      <point x="77" y="364" type="line"/>
      <point x="204" y="364" type="line"/>
      <point x="224" y="317" type="line"/>
      <point x="71" y="317" type="line"/>
      <point x="58" y="224" type="line"/>
      <point x="240" y="224" type="line"/>
      <point x="208" y="0" type="line"/>
      <point x="417" y="0" type="line"/>
      <point x="449" y="224" type="line"/>
      <point x="637" y="224" type="line"/>
      <point x="650" y="317" type="line"/>
      <point x="491" y="317" type="line"/>
      <point x="523" y="364" type="line"/>
      <point x="656" y="364" type="line"/>
      <point x="670" y="457" type="line"/>
      <point x="586" y="457" type="line"/>
      <point x="741" y="686" type="line"/>
    </contour>
  </outline>
</glyph>
<glyph name="dieresis" format="1">
  <advance width="440"/>
  <unicode hex="00A8"/>
  <outline>
    <contour>
      <point x="267" y="750" type="line"/>
      <point x="246" y="603" type="line"/>
      <point x="398" y="603" type="line"/>
      <point x="419" y="750" type="line"/>
    </contour>
    <contour>
      <point x="47" y="750" type="line"/>
      <point x="26" y="603" type="line"/>
      <point x="178" y="603" type="line"/>
      <point x="199" y="750" type="line"/>
    </contour>
    <contour>
      <point x="203" y="511" type="move" name="_top"/>
    </contour>
  </outline>
</glyph>
<glyph name="softhyphen" format="1">
  <advance width="351"/>
  <unicode hex="00AD"/>
  <outline>
    <contour>
      <point x="57" y="354" type="line"/>
      <point x="35" y="196" type="line"/>
      <point x="288" y="196" type="line"/>
      <point x="311" y="354" type="line"/>
    </contour>
  </outline>
</glyph>
<glyph name="registered" format="1">
  <advance width="775"/>
  <unicode hex="00AE"/>
  <outline>
    <contour>
      <point x="198" y="696"/>
      <point x="41" y="539"/>
      <point x="41" y="344" type="curve" smooth="yes"/>
      <point x="41" y="147"/>
      <point x="198" y="-10"/>
      <point x="395" y="-10" type="curve" smooth="yes"/>
      <point x="590" y="-10"/>
      <point x="749" y="147"/>
      <point x="749" y="344" type="curve" smooth="yes"/>
      <point x="749" y="539"/>
      <point x="590" y="696"/>
      <point x="395" y="696" type="curve" smooth="yes"/>
    </contour>
    <contour>
      <point x="563" y="632"/>
      <point x="673" y="518"/>
      <point x="673" y="344" type="curve" smooth="yes"/>
      <point x="673" y="168"/>
      <point x="563" y="55"/>
      <point x="395" y="55" type="curve" smooth="yes"/>
      <point x="224" y="55"/>
      <point x="117" y="168"/>
      <point x="117" y="344" type="curve" smooth="yes"/>
      <point x="117" y="518"/>
      <point x="224" y="632"/>
      <point x="395" y="632" type="curve" smooth="yes"/>
    </contour>
    <contour>
      <point x="230" y="547" type="line"/>
      <point x="230" y="135" type="line"/>
      <point x="353" y="135" type="line"/>
      <point x="353" y="303" type="line"/>
      <point x="387" y="303" type="line" smooth="yes"/>
      <point x="439" y="303"/>
      <point x="441" y="245"/>
      <point x="441" y="207" type="curve" smooth="yes"/>
      <point x="441" y="148"/>
      <point x="472" y="129"/>
      <point x="525" y="129" type="curve" smooth="yes"/>
      <point x="548" y="129"/>
      <point x="576" y="132"/>
      <point x="597" y="141" type="curve"/>
      <point x="597" y="165" type="line"/>
      <point x="568" y="173"/>
      <point x="567" y="214"/>
      <point x="567" y="239" type="curve" smooth="yes"/>
      <point x="567" y="290"/>
      <point x="547" y="336"/>
      <point x="500" y="351" type="curve"/>
      <point x="501" y="354" type="line"/>
      <point x="544" y="362"/>
      <point x="575" y="401"/>
      <point x="575" y="445" type="curve" smooth="yes"/>
      <point x="575" y="507"/>
      <point x="520" y="547"/>
      <point x="461" y="547" type="curve" smooth="yes"/>
    </contour>
    <contour>
      <point x="433" y="459"/>
      <point x="446" y="446"/>
      <point x="446" y="429" type="curve" smooth="yes"/>
      <point x="446" y="419" type="line" smooth="yes"/>
      <point x="446" y="402"/>
      <point x="433" y="389"/>
      <point x="416" y="389" type="curve" smooth="yes"/>
      <point x="353" y="389" type="line"/>
      <point x="353" y="459" type="line"/>
      <point x="416" y="459" type="line" smooth="yes"/>
    </contour>
  </outline>
</glyph>
<glyph name="degree" format="1">
  <advance width="354"/>
  <unicode hex="00B0"/>
  <outline>
    <contour>
      <point x="144" y="696"/>
      <point x="61" y="616"/>
      <point x="61" y="525" type="curve" smooth="yes"/>
      <point x="61" y="452"/>
      <point x="115" y="396"/>
      <point x="191" y="396" type="curve" smooth="yes"/>
      <point x="284" y="396"/>
      <point x="364" y="481"/>
      <point x="364" y="566" type="curve" smooth="yes"/>
      <point x="364" y="638"/>
      <point x="309" y="696"/>
      <point x="234" y="696" type="curve" smooth="yes"/>
    </contour>
    <contour>
      <point x="251" y="607"/>
      <point x="274" y="585"/>
      <point x="274" y="554" type="curve" smooth="yes"/>
      <point x="274" y="515"/>
      <point x="240" y="483"/>
      <point x="203" y="483" type="curve" smooth="yes"/>
      <point x="171" y="483"/>
      <point x="148" y="507"/>
      <point x="148" y="538" type="curve" smooth="yes"/>
      <point x="148" y="575"/>
      <point x="185" y="607"/>
      <point x="219" y="607" type="curve" smooth="yes"/>
    </contour>
  </outline>
</glyph>
<glyph name="plusminus" format="1">
  <advance width="615"/>
  <unicode hex="00B1"/>
  <outline>
    <contour>
      <point x="274" y="512" type="line"/>
      <point x="259" y="400" type="line"/>
      <point x="67" y="400" type="line"/>
      <point x="49" y="272" type="line"/>
      <point x="241" y="272" type="line"/>
      <point x="225" y="160" type="line"/>
      <point x="353" y="160" type="line"/>
      <point x="369" y="272" type="line"/>
      <point x="561" y="272" type="line"/>
      <point x="579" y="400" type="line"/>
      <point x="387" y="400" type="line"/>
      <point x="402" y="512" type="line"/>
    </contour>
    <contour>
      <point x="29" y="128" type="line"/>
      <point x="11" y="0" type="line"/>
      <point x="523" y="0" type="line"/>
      <point x="541" y="128" type="line"/>
    </contour>
  </outline>
</glyph>
<glyph name="twosuperior" format="1">
  <advance width="369"/>
  <unicode hex="00B2"/>
  <outline>
    <contour>
      <point x="247" y="804" type="line" smooth="yes"/>
      <point x="127" y="804"/>
      <point x="91" y="716"/>
      <point x="91" y="668" type="curve"/>
      <point x="186" y="668" type="line"/>
      <point x="188" y="683" type="line" smooth="yes"/>
      <point x="191" y="704"/>
      <point x="211" y="720"/>
      <point x="232" y="720" type="curve" smooth="yes"/>
      <point x="239" y="720" type="line" smooth="yes"/>
      <point x="258" y="720"/>
      <point x="270" y="708"/>
      <point x="270" y="689" type="curve" smooth="yes"/>
      <point x="270" y="666"/>
      <point x="258" y="645"/>
      <point x="233" y="626" type="curve" smooth="yes"/>
      <point x="114" y="534" type="line" smooth="yes"/>
      <point x="79" y="507"/>
      <point x="62" y="482"/>
      <point x="58" y="441" type="curve" smooth="yes"/>
      <point x="56" y="422" type="line"/>
      <point x="343" y="422" type="line"/>
      <point x="355" y="512" type="line"/>
      <point x="214" y="512" type="line"/>
      <point x="288" y="563"/>
      <point x="381" y="604"/>
      <point x="381" y="702" type="curve" smooth="yes"/>
      <point x="381" y="763"/>
      <point x="337" y="804"/>
      <point x="264" y="804" type="curve" smooth="yes"/>
    </contour>
  </outline>
</glyph>
<glyph name="paragraph" format="1">
  <advance width="582"/>
  <unicode hex="00B6"/>
  <outline>
    <contour>
      <point x="294" y="686" type="line" smooth="yes"/>
      <point x="163" y="686"/>
      <point x="46" y="571"/>
      <point x="46" y="437" type="curve" smooth="yes"/>
      <point x="46" y="337"/>
      <point x="119" y="256"/>
      <point x="224" y="253" type="curve"/>
      <point x="166" y="-161" type="line"/>
      <point x="254" y="-161" type="line"/>
      <point x="362" y="607" type="line"/>
      <point x="438" y="607" type="line"/>
      <point x="330" y="-161" type="line"/>
      <point x="418" y="-161" type="line"/>
      <point x="526" y="607" type="line"/>
      <point x="592" y="607" type="line"/>
      <point x="603" y="686" type="line"/>
    </contour>
  </outline>
</glyph>
<glyph name="periodcentered" format="1">
  <advance width="287"/>
  <unicode hex="00B7"/>
  <outline>
    <contour>
      <point x="60" y="380" type="line"/>
      <point x="35" y="197" type="line"/>
      <point x="226" y="197" type="line"/>
      <point x="251" y="380" type="line"/>
    </contour>
  </outline>
</glyph>
<glyph name="guillemotright" format="1">
  <advance width="443"/>
  <unicode hex="00BB"/>
  <outline>
    <contour>
      <point x="249" y="511" type="line"/>
      <point x="310" y="337" type="line"/>
      <point x="200" y="163" type="line"/>
      <point x="274" y="163" type="line"/>
      <point x="419" y="337" type="line"/>
      <point x="323" y="511" type="line"/>
    </contour>
    <contour>
      <point x="68" y="511" type="line"/>
      <point x="129" y="337" type="line"/>
      <point x="19" y="163" type="line"/>
      <point x="93" y="163" type="line"/>
      <point x="238" y="337" type="line"/>
      <point x="142" y="511" type="line"/>
    </contour>
  </outline>
</glyph>
<glyph name="onehalf" format="1">
  <advance width="765"/>
  <unicode hex="00BD"/>
  <outline>
    <contour>
      <point x="617" y="686" type="line"/>
      <point x="100" y="0" type="line"/>
      <point x="189" y="0" type="line"/>
      <point x="703" y="686" type="line"/>
    </contour>
    <contour>
      <point x="240" y="686" type="line"/>
      <point x="195" y="659"/>
      <point x="130" y="631"/>
      <point x="81" y="628" type="curve"/>
      <point x="72" y="566" type="line"/>
      <point x="154" y="566" type="line"/>
      <point x="130" y="394" type="line"/>
      <point x="48" y="394" type="line"/>
      <point x="36" y="312" type="line"/>
      <point x="301" y="312" type="line"/>
      <point x="313" y="394" type="line"/>
      <point x="235" y="394" type="line"/>
      <point x="276" y="686" type="line"/>
    </contour>
    <contour>
      <point x="600" y="382" type="line" smooth="yes"/>
      <point x="480" y="382"/>
      <point x="444" y="294"/>
      <point x="444" y="246" type="curve"/>
      <point x="539" y="246" type="line"/>
      <point x="541" y="261" type="line" smooth="yes"/>
      <point x="544" y="282"/>
      <point x="564" y="298"/>
      <point x="585" y="298" type="curve" smooth="yes"/>
      <point x="592" y="298" type="line" smooth="yes"/>
      <point x="611" y="298"/>
      <point x="623" y="286"/>
      <point x="623" y="267" type="curve" smooth="yes"/>
      <point x="623" y="244"/>
      <point x="611" y="223"/>
      <point x="586" y="204" type="curve" smooth="yes"/>
      <point x="467" y="112" type="line" smooth="yes"/>
      <point x="432" y="85"/>
      <point x="415" y="60"/>
      <point x="411" y="19" type="curve" smooth="yes"/>
      <point x="409" y="0" type="line"/>
      <point x="696" y="0" type="line"/>
      <point x="708" y="90" type="line"/>
      <point x="567" y="90" type="line"/>
      <point x="641" y="141"/>
      <point x="734" y="182"/>
      <point x="734" y="280" type="curve" smooth="yes"/>
      <point x="734" y="341"/>
      <point x="690" y="382"/>
      <point x="617" y="382" type="curve" smooth="yes"/>
    </contour>
  </outline>
</glyph>
<glyph name="Agrave" format="1">
  <advance width="709"/>
  <unicode hex="00C0"/>
  <outline>
    <contour>
      <point x="281" y="686" type="line"/>
      <point x="-44" y="0" type="line"/>
      <point x="157" y="0" type="line"/>
      <point x="214" y="122" type="line"/>
      <point x="432" y="122" type="line"/>
      <point x="456" y="0" type="line"/>
      <point x="674" y="0" type="line"/>
      <point x="542" y="686" type="line"/>
    </contour>
    <contour>
      <point x="405" y="267" type="line"/>
      <point x="283" y="267" type="line"/>
      <point x="371" y="475" type="line"/>
      <point x="376" y="475" type="line"/>
    </contour>
    <contour>
      <point x="251" y="895" type="line"/>
      <point x="248" y="892" type="line"/>
      <point x="354" y="750" type="line"/>
      <point x="472" y="750" type="line"/>
      <point x="402" y="895" type="line"/>
    </contour>
  </outline>
</glyph>
<glyph name="Atilde" format="1">
  <advance width="709"/>
  <unicode hex="00C3"/>
  <outline>
    <contour>
      <point x="281" y="686" type="line"/>
      <point x="-44" y="0" type="line"/>
      <point x="157" y="0" type="line"/>
      <point x="214" y="122" type="line"/>
      <point x="432" y="122" type="line"/>
      <point x="456" y="0" type="line"/>
      <point x="674" y="0" type="line"/>
      <point x="542" y="686" type="line"/>
    </contour>
    <contour>
      <point x="405" y="267" type="line"/>
      <point x="283" y="267" type="line"/>
      <point x="371" y="475" type="line"/>
      <point x="376" y="475" type="line"/>
    </contour>
    <contour>
      <point x="572" y="889" type="line"/>
      <point x="561" y="866"/>
      <point x="541" y="849"/>
      <point x="516" y="849" type="curve" smooth="yes"/>
      <point x="462" y="849"/>
      <point x="413" y="889"/>
      <point x="349" y="889" type="curve" smooth="yes"/>
      <point x="264" y="889"/>
      <point x="200" y="818"/>
      <point x="189" y="746" type="curve"/>
      <point x="269" y="746" type="line"/>
      <point x="280" y="769"/>
      <point x="300" y="786"/>
      <point x="325" y="786" type="curve" smooth="yes"/>
      <point x="378" y="786"/>
      <point x="428" y="746"/>
      <point x="492" y="746" type="curve" smooth="yes"/>
      <point x="579" y="746"/>
      <point x="642" y="817"/>
      <point x="653" y="889" type="curve"/>
    </contour>
  </outline>
</glyph>
<glyph name="Egrave" format="1">
  <advance width="600"/>
  <unicode hex="00C8"/>
  <outline>
    <contour>
      <point x="113" y="686" type="line"/>
      <point x="16" y="0" type="line"/>
      <point x="531" y="0" type="line"/>
      <point x="531" y="164" type="line"/>
      <point x="245" y="164" type="line"/>
      <point x="261" y="275" type="line"/>
      <point x="539" y="275" type="line"/>
      <point x="560" y="428" type="line"/>
      <point x="282" y="428" type="line"/>
      <point x="297" y="528" type="line"/>
      <point x="586" y="528" type="line"/>
      <point x="628" y="686" type="line"/>
    </contour>
    <contour>
      <point x="219" y="896" type="line"/>
      <point x="216" y="893" type="line"/>
      <point x="322" y="751" type="line"/>
      <point x="440" y="751" type="line"/>
      <point x="370" y="896" type="line"/>
    </contour>
  </outline>
</glyph>
<glyph name="Eacute" format="1">
  <advance width="600"/>
  <unicode hex="00C9"/>
  <outline>
    <contour>
      <point x="113" y="686" type="line"/>
      <point x="16" y="0" type="line"/>
      <point x="531" y="0" type="line"/>
      <point x="531" y="164" type="line"/>
      <point x="245" y="164" type="line"/>
      <point x="261" y="275" type="line"/>
      <point x="539" y="275" type="line"/>
      <point x="560" y="428" type="line"/>
      <point x="282" y="428" type="line"/>
      <point x="297" y="528" type="line"/>
      <point x="586" y="528" type="line"/>
      <point x="628" y="686" type="line"/>
    </contour>
    <contour>
      <point x="420" y="895" type="line"/>
      <point x="308" y="750" type="line"/>
      <point x="426" y="750" type="line"/>
      <point x="572" y="892" type="line"/>
      <point x="571" y="895" type="line"/>
    </contour>
  </outline>
</glyph>
<glyph name="Edieresis" format="1">
  <advance width="600"/>
  <unicode hex="00CB"/>
  <outline>
    <contour>
      <point x="113" y="686" type="line"/>
      <point x="16" y="0" type="line"/>
      <point x="531" y="0" type="line"/>
      <point x="531" y="164" type="line"/>
      <point x="245" y="164" type="line"/>
      <point x="261" y="275" type="line"/>
      <point x="539" y="275" type="line"/>
      <point x="560" y="428" type="line"/>
      <point x="282" y="428" type="line"/>
      <point x="297" y="528" type="line"/>
      <point x="586" y="528" type="line"/>
      <point x="628" y="686" type="line"/>
    </contour>
    <contour>
      <point x="204" y="898" type="line"/>
      <point x="183" y="751" type="line"/>
      <point x="335" y="751" type="line"/>
      <point x="356" y="898" type="line"/>
    </contour>
    <contour>
      <point x="424" y="898" type="line"/>
      <point x="403" y="751" type="line"/>
      <point x="555" y="751" type="line"/>
      <point x="576" y="898" type="line"/>
    </contour>
  </outline>
</glyph>
<glyph name="Thorn" format="1">
  <advance width="646"/>
  <unicode hex="00DE"/>
  <outline>
    <contour>
      <point x="113" y="686" type="line"/>
      <point x="16" y="0" type="line"/>
      <point x="225" y="0" type="line"/>
      <point x="246" y="146" type="line"/>
      <point x="402" y="146" type="line" smooth="yes"/>
      <point x="542" y="146"/>
      <point x="646" y="263"/>
      <point x="646" y="402" type="curve" smooth="yes"/>
      <point x="646" y="503"/>
      <point x="570" y="583"/>
      <point x="463" y="583" type="curve" smooth="yes"/>
      <point x="307" y="583" type="line"/>
      <point x="322" y="686" type="line"/>
    </contour>
    <contour>
      <point x="413" y="427"/>
      <point x="431" y="409"/>
      <point x="431" y="384" type="curve" smooth="yes"/>
      <point x="431" y="381"/>
      <point x="431" y="379"/>
      <point x="427" y="344" type="curve" smooth="yes"/>
      <point x="423" y="316"/>
      <point x="397" y="294"/>
      <point x="370" y="294" type="curve" smooth="yes"/>
      <point x="267" y="294" type="line"/>
      <point x="285" y="427" type="line"/>
      <point x="388" y="427" type="line" smooth="yes"/>
    </contour>
  </outline>
</glyph>
<glyph name="aring" format="1">
  <advance width="628"/>
  <unicode hex="00E5"/>
  <outline>
    <contour>
      <point x="86" y="521"/>
      <point x="17" y="337"/>
      <point x="17" y="193" type="curve" smooth="yes"/>
      <point x="17" y="81"/>
      <point x="64" y="-10"/>
      <point x="188" y="-10" type="curve" smooth="yes"/>
      <point x="245" y="-10"/>
      <point x="302" y="24"/>
      <point x="337" y="68" type="curve"/>
      <point x="353" y="0"/>
      <point x="413" y="-10"/>
      <point x="473" y="-10" type="curve" smooth="yes"/>
      <point x="505" y="-10"/>
      <point x="547" y="-2"/>
      <point x="576" y="13" type="curve"/>
      <point x="591" y="123" type="line"/>
      <point x="580" y="116"/>
      <point x="567" y="110"/>
      <point x="554" y="110" type="curve" smooth="yes"/>
      <point x="535" y="110"/>
      <point x="528" y="122"/>
      <point x="528" y="137" type="curve" smooth="yes"/>
      <point x="528" y="169"/>
      <point x="553" y="344"/>
      <point x="581" y="511" type="curve"/>
      <point x="432" y="511" type="line"/>
      <point x="398" y="450" type="line"/>
      <point x="393" y="450" type="line"/>
      <point x="364" y="497"/>
      <point x="310" y="521"/>
      <point x="257" y="521" type="curve" smooth="yes"/>
    </contour>
    <contour>
      <point x="337" y="396"/>
      <point x="359" y="377"/>
      <point x="359" y="338" type="curve" smooth="yes"/>
      <point x="359" y="329"/>
      <point x="353" y="290"/>
      <point x="348" y="253" type="curve" smooth="yes"/>
      <point x="338" y="181" type="line" smooth="yes"/>
      <point x="332" y="142"/>
      <point x="309" y="111"/>
      <point x="266" y="111" type="curve" smooth="yes"/>
      <point x="235" y="111"/>
      <point x="213" y="135"/>
      <point x="213" y="170" type="curve" smooth="yes"/>
      <point x="213" y="174"/>
      <point x="213" y="178"/>
      <point x="234" y="326" type="curve" smooth="yes"/>
      <point x="239" y="365"/>
      <point x="269" y="396"/>
      <point x="306" y="396" type="curve" smooth="yes"/>
    </contour>
    <contour>
      <point x="322" y="760"/>
      <point x="268" y="708"/>
      <point x="268" y="646" type="curve" smooth="yes"/>
      <point x="268" y="595"/>
      <point x="305" y="559"/>
      <point x="356" y="559" type="curve" smooth="yes"/>
      <point x="420" y="559"/>
      <point x="472" y="610"/>
      <point x="472" y="674" type="curve" smooth="yes"/>
      <point x="472" y="723"/>
      <point x="436" y="760"/>
      <point x="385" y="760" type="curve" smooth="yes"/>
    </contour>
    <contour>
      <point x="394" y="694"/>
      <point x="406" y="682"/>
      <point x="406" y="663" type="curve" smooth="yes"/>
      <point x="406" y="636"/>
      <point x="385" y="624"/>
      <point x="366" y="624" type="curve" smooth="yes"/>
      <point x="347" y="624"/>
      <point x="335" y="637"/>
      <point x="335" y="654" type="curve" smooth="yes"/>
      <point x="335" y="677"/>
      <point x="352" y="694"/>
      <point x="375" y="694" type="curve" smooth="yes"/>
    </contour>
  </outline>
</glyph>
<glyph name="igrave" format="1">
  <advance width="296"/>
  <unicode hex="00EC"/>
  <outline>
    <contour>
      <point x="80" y="511" type="line"/>
      <point x="9" y="0" type="line"/>
      <point x="206" y="0" type="line"/>
      <point x="277" y="511" type="line"/>
    </contour>
    <contour>
      <point x="51" y="720" type="line"/>
      <point x="48" y="717" type="line"/>
      <point x="154" y="575" type="line"/>
      <point x="272" y="575" type="line"/>
      <point x="202" y="720" type="line"/>
    </contour>
  </outline>
</glyph>
<glyph name="iacute" format="1">
  <advance width="296"/>
  <unicode hex="00ED"/>
  <outline>
    <contour>
      <point x="80" y="511" type="line"/>
      <point x="9" y="0" type="line"/>
      <point x="206" y="0" type="line"/>
      <point x="277" y="511" type="line"/>
    </contour>
    <contour>
      <point x="204" y="720" type="line"/>
      <point x="92" y="575" type="line"/>
      <point x="210" y="575" type="line"/>
      <point x="356" y="717" type="line"/>
      <point x="355" y="720" type="line"/>
    </contour>
  </outline>
</glyph>
<glyph name="icircumflex" format="1">
  <advance width="296"/>
  <unicode hex="00EE"/>
  <outline>
    <contour>
      <point x="80" y="511" type="line"/>
      <point x="9" y="0" type="line"/>
      <point x="206" y="0" type="line"/>
      <point x="277" y="511" type="line"/>
    </contour>
    <contour>
      <point x="142" y="720" type="line"/>
      <point x="-18" y="575" type="line"/>
      <point x="110" y="575" type="line"/>
      <point x="195" y="652" type="line"/>
      <point x="258" y="575" type="line"/>
      <point x="388" y="575" type="line"/>
      <point x="270" y="720" type="line"/>
    </contour>
  </outline>
</glyph>
<glyph name="thorn" format="1">
  <advance width="599"/>
  <unicode hex="00FE"/>
  <outline>
    <contour>
      <point x="109" y="720" type="line"/>
      <point x="-17" y="-181" type="line"/>
      <point x="180" y="-181" type="line"/>
      <point x="213" y="53" type="line"/>
      <point x="229" y="18"/>
      <point x="265" y="-10"/>
      <point x="336" y="-10" type="curve" smooth="yes"/>
      <point x="442" y="-10"/>
      <point x="542" y="75"/>
      <point x="566" y="250" type="curve" smooth="yes"/>
      <point x="567" y="261" type="line" smooth="yes"/>
      <point x="570" y="284"/>
      <point x="572" y="306"/>
      <point x="572" y="326" type="curve" smooth="yes"/>
      <point x="572" y="457"/>
      <point x="504" y="521"/>
      <point x="411" y="521" type="curve" smooth="yes"/>
      <point x="340" y="521"/>
      <point x="297" y="493"/>
      <point x="270" y="458" type="curve"/>
      <point x="307" y="720" type="line"/>
    </contour>
    <contour>
      <point x="355" y="400"/>
      <point x="377" y="375"/>
      <point x="377" y="340" type="curve"/>
      <point x="356" y="185" type="line" smooth="yes"/>
      <point x="351" y="146"/>
      <point x="316" y="115"/>
      <point x="284" y="115" type="curve" smooth="yes"/>
      <point x="253" y="115"/>
      <point x="231" y="140"/>
      <point x="231" y="173" type="curve" smooth="yes"/>
      <point x="231" y="178"/>
      <point x="231" y="182"/>
      <point x="232" y="185" type="curve"/>
      <point x="252" y="330" type="line" smooth="yes"/>
      <point x="257" y="369"/>
      <point x="289" y="400"/>
      <point x="324" y="400" type="curve" smooth="yes"/>
    </contour>
  </outline>
</glyph>
<glyph name="ydieresis" format="1">
  <advance width="552"/>
  <unicode hex="00FF"/>
  <outline>
    <contour>
      <point x="391" y="511" type="line"/>
      <point x="286" y="246" type="line"/>
      <point x="278" y="246" type="line"/>
      <point x="237" y="511" type="line"/>
      <point x="26" y="511" type="line"/>
      <point x="144" y="15" type="line"/>
      <point x="136" y="-10"/>
      <point x="117" y="-57"/>
      <point x="56" y="-57" type="curve" smooth="yes"/>
      <point x="28" y="-57"/>
      <point x="-4" y="-50"/>
      <point x="-17" y="-43" type="curve"/>
      <point x="-34" y="-172" type="line"/>
      <point x="-15" y="-183"/>
      <point x="18" y="-187"/>
      <point x="61" y="-187" type="curve" smooth="yes"/>
      <point x="183" y="-187"/>
      <point x="283" y="-91"/>
      <point x="347" y="36" type="curve" smooth="yes"/>
      <point x="586" y="511" type="line"/>
    </contour>
    <contour>
      <point x="148" y="720" type="line"/>
      <point x="127" y="573" type="line"/>
      <point x="279" y="573" type="line"/>
      <point x="300" y="720" type="line"/>
    </contour>
    <contour>
      <point x="368" y="720" type="line"/>
      <point x="347" y="573" type="line"/>
      <point x="499" y="573" type="line"/>
      <point x="520" y="720" type="line"/>
    </contour>
  </outline>
</glyph>
<glyph name="dotlessi" format="1">
  <advance width="296"/>
  <unicode hex="0131"/>
  <outline>
    <contour>
      <point x="80" y="511" type="line"/>
      <point x="9" y="0" type="line"/>
      <point x="206" y="0" type="line"/>
      <point x="277" y="511" type="line"/>
    </contour>
    <contour>
      <point x="196" y="10" type="move" name="ogonek"/>
    </contour>
    <contour>
      <point x="179" y="511" type="move" name="top"/>
    </contour>
  </outline>
</glyph>
<glyph name="Lslash" format="1">
  <advance width="555"/>
  <unicode hex="0141"/>
  <outline>
    <contour>
      <point x="128" y="686" type="line"/>
      <point x="87" y="393" type="line"/>
      <point x="17" y="360" type="line"/>
      <point x="2" y="255" type="line"/>
      <point x="72" y="288" type="line"/>
      <point x="31" y="0" type="line"/>
      <point x="506" y="0" type="line"/>
      <point x="506" y="168" type="line"/>
      <point x="267" y="168" type="line"/>
      <point x="299" y="394" type="line"/>
      <point x="396" y="439" type="line"/>
      <point x="411" y="544" type="line"/>
      <point x="313" y="499" type="line"/>
      <point x="340" y="686" type="line"/>
    </contour>
  </outline>
</glyph>
<glyph name="OE" format="1">
  <advance width="1004"/>
  <unicode hex="0152"/>
  <outline>
    <contour>
      <point x="388" y="686" type="line" smooth="yes"/>
      <point x="203" y="686"/>
      <point x="69" y="556"/>
      <point x="46" y="394" type="curve" smooth="yes"/>
      <point x="29" y="276"/>
      <point x="29" y="277"/>
      <point x="28" y="248" type="curve"/>
      <point x="28" y="107"/>
      <point x="137" y="0"/>
      <point x="289" y="0" type="curve" smooth="yes"/>
      <point x="935" y="0" type="line"/>
      <point x="935" y="164" type="line"/>
      <point x="649" y="164" type="line"/>
      <point x="665" y="275" type="line"/>
      <point x="943" y="275" type="line"/>
      <point x="964" y="428" type="line"/>
      <point x="686" y="428" type="line"/>
      <point x="701" y="528" type="line"/>
      <point x="990" y="528" type="line"/>
      <point x="1032" y="686" type="line"/>
    </contour>
    <contour>
      <point x="448" y="532"/>
      <point x="484" y="495"/>
      <point x="484" y="446" type="curve" smooth="yes"/>
      <point x="484" y="440"/>
      <point x="484" y="435"/>
      <point x="483" y="432" type="curve" smooth="yes"/>
      <point x="456" y="257" type="line" smooth="yes"/>
      <point x="447" y="201"/>
      <point x="410" y="157"/>
      <point x="342" y="157" type="curve" smooth="yes"/>
      <point x="337" y="157" type="line" smooth="yes"/>
      <point x="286" y="157"/>
      <point x="250" y="194"/>
      <point x="250" y="243" type="curve" smooth="yes"/>
      <point x="250" y="249"/>
      <point x="250" y="254"/>
      <point x="251" y="257" type="curve" smooth="yes"/>
      <point x="278" y="432" type="line" smooth="yes"/>
      <point x="287" y="488"/>
      <point x="323" y="532"/>
      <point x="392" y="532" type="curve" smooth="yes"/>
      <point x="397" y="532" type="line" smooth="yes"/>
    </contour>
    <contour>
      <point x="502" y="686" type="move" name="top"/>
    </contour>
  </outline>
</glyph>
<glyph name="Scaron" format="1">
  <advance width="651"/>
  <unicode hex="0160"/>
  <outline>
    <contour>
      <point x="200" y="696"/>
      <point x="63" y="611"/>
      <point x="63" y="443" type="curve" smooth="yes"/>
      <point x="63" y="221"/>
      <point x="394" y="284"/>
      <point x="394" y="199" type="curve" smooth="yes"/>
      <point x="394" y="175"/>
      <point x="377" y="151"/>
      <point x="293" y="151" type="curve" smooth="yes"/>
      <point x="228" y="151"/>
      <point x="208" y="180"/>
      <point x="208" y="212" type="curve" smooth="yes"/>
      <point x="208" y="220"/>
      <point x="209" y="227"/>
      <point x="212" y="234" type="curve"/>
      <point x="18" y="234" type="line"/>
      <point x="15" y="215"/>
      <point x="12" y="196"/>
      <point x="12" y="177" type="curve" smooth="yes"/>
      <point x="12" y="47"/>
      <point x="135" y="-10"/>
      <point x="276" y="-10" type="curve" smooth="yes"/>
      <point x="544" y="-10"/>
      <point x="616" y="132"/>
      <point x="616" y="261" type="curve" smooth="yes"/>
      <point x="616" y="469"/>
      <point x="281" y="409"/>
      <point x="281" y="497" type="curve" smooth="yes"/>
      <point x="281" y="524"/>
      <point x="310" y="544"/>
      <point x="371" y="544" type="curve" smooth="yes"/>
      <point x="421" y="544"/>
      <point x="446" y="520"/>
      <point x="445" y="493" type="curve" smooth="yes"/>
      <point x="444" y="474" type="line"/>
      <point x="636" y="474" type="line"/>
      <point x="640" y="494"/>
      <point x="640" y="506"/>
      <point x="640" y="517" type="curve" smooth="yes"/>
      <point x="640" y="641"/>
      <point x="529" y="696"/>
      <point x="388" y="696" type="curve" smooth="yes"/>
    </contour>
    <contour>
      <point x="482" y="895" type="line"/>
      <point x="397" y="818" type="line"/>
      <point x="334" y="895" type="line"/>
      <point x="204" y="895" type="line"/>
      <point x="322" y="750" type="line"/>
      <point x="450" y="750" type="line"/>
      <point x="610" y="895" type="line"/>
    </contour>
  </outline>
</glyph>
<glyph name="scaron" format="1">
  <advance width="559"/>
  <unicode hex="0161"/>
  <outline>
    <contour>
      <point x="313" y="521" type="line" smooth="yes"/>
      <point x="192" y="521"/>
      <point x="44" y="465"/>
      <point x="44" y="322" type="curve" smooth="yes"/>
      <point x="44" y="143"/>
      <point x="335" y="212"/>
      <point x="335" y="145" type="curve" smooth="yes"/>
      <point x="335" y="112"/>
      <point x="264" y="111"/>
      <point x="245" y="111" type="curve" smooth="yes"/>
      <point x="213" y="111"/>
      <point x="166" y="120"/>
      <point x="166" y="156" type="curve" smooth="yes"/>
      <point x="166" y="163" type="line"/>
      <point x="166" y="164"/>
      <point x="166" y="166"/>
      <point x="167" y="167" type="curve"/>
      <point x="5" y="167" type="line"/>
      <point x="2" y="155"/>
      <point x="1" y="140"/>
      <point x="1" y="127" type="curve" smooth="yes"/>
      <point x="1" y="32"/>
      <point x="87" y="-10"/>
      <point x="230" y="-10" type="curve" smooth="yes"/>
      <point x="240" y="-10" type="line" smooth="yes"/>
      <point x="440" y="-10"/>
      <point x="516" y="83"/>
      <point x="516" y="199" type="curve" smooth="yes"/>
      <point x="516" y="382"/>
      <point x="222" y="306"/>
      <point x="222" y="371" type="curve" smooth="yes"/>
      <point x="222" y="403"/>
      <point x="281" y="403"/>
      <point x="300" y="403" type="curve" smooth="yes"/>
      <point x="328" y="403"/>
      <point x="364" y="396"/>
      <point x="364" y="363" type="curve" smooth="yes"/>
      <point x="364" y="358" type="line"/>
      <point x="528" y="358" type="line"/>
      <point x="527" y="358"/>
      <point x="535" y="374"/>
      <point x="535" y="397" type="curve" smooth="yes"/>
      <point x="535" y="482"/>
      <point x="426" y="521"/>
      <point x="321" y="521" type="curve" smooth="yes"/>
    </contour>
    <contour>
      <point x="421" y="720" type="line"/>
      <point x="336" y="643" type="line"/>
      <point x="273" y="720" type="line"/>
      <point x="143" y="720" type="line"/>
      <point x="261" y="575" type="line"/>
      <point x="389" y="575" type="line"/>
      <point x="549" y="720" type="line"/>
    </contour>
  </outline>
</glyph>
<glyph name="Zcaron" format="1">
  <advance width="607"/>
  <unicode hex="017D"/>
  <outline>
    <contour>
      <point x="93" y="686" type="line"/>
      <point x="70" y="526" type="line"/>
      <point x="315" y="526" type="line"/>
      <point x="-18" y="61" type="line"/>
      <point x="-27" y="0" type="line"/>
      <point x="543" y="0" type="line"/>
      <point x="566" y="161" type="line"/>
      <point x="294" y="161" type="line"/>
      <point x="623" y="625" type="line"/>
      <point x="632" y="686" type="line"/>
    </contour>
    <contour>
      <point x="468" y="895" type="line"/>
      <point x="383" y="818" type="line"/>
      <point x="320" y="895" type="line"/>
      <point x="190" y="895" type="line"/>
      <point x="308" y="750" type="line"/>
      <point x="436" y="750" type="line"/>
      <point x="596" y="895" type="line"/>
    </contour>
  </outline>
</glyph>
<glyph name="ring" format="1">
  <advance width="340"/>
  <unicode hex="02DA"/>
  <outline>
    <contour>
      <point x="121" y="746"/>
      <point x="67" y="694"/>
      <point x="67" y="632" type="curve" smooth="yes"/>
      <point x="67" y="581"/>
      <point x="104" y="545"/>
      <point x="155" y="545" type="curve" smooth="yes"/>
      <point x="219" y="545"/>
      <point x="271" y="596"/>
      <point x="271" y="660" type="curve" smooth="yes"/>
      <point x="271" y="709"/>
      <point x="235" y="746"/>
      <point x="184" y="746" type="curve" smooth="yes"/>
    </contour>
    <contour>
      <point x="193" y="680"/>
      <point x="205" y="668"/>
      <point x="205" y="649" type="curve" smooth="yes"/>
      <point x="205" y="622"/>
      <point x="184" y="610"/>
      <point x="165" y="610" type="curve" smooth="yes"/>
      <point x="146" y="610"/>
      <point x="134" y="623"/>
      <point x="134" y="640" type="curve" smooth="yes"/>
      <point x="134" y="663"/>
      <point x="151" y="680"/>
      <point x="174" y="680" type="curve" smooth="yes"/>
    </contour>
    <contour>
      <point x="169" y="511" type="move" name="_top"/>
    </contour>
  </outline>
</glyph>
<glyph name="ogonek" format="1">
  <advance width="340"/>
  <unicode hex="02DB"/>
  <outline>
    <contour>
      <point x="133" y="0" type="line"/>
      <point x="101" y="-19"/>
      <point x="68" y="-44"/>
      <point x="68" y="-83" type="curve" smooth="yes"/>
      <point x="68" y="-128"/>
      <point x="112" y="-143"/>
      <point x="155" y="-143" type="curve" smooth="yes"/>
      <point x="191" y="-143"/>
      <point x="228" y="-135"/>
      <point x="263" y="-119" type="curve"/>
      <point x="256" y="-76" type="line"/>
      <point x="233" y="-84"/>
      <point x="210" y="-90"/>
      <point x="187" y="-90" type="curve" smooth="yes"/>
      <point x="168" y="-90"/>
      <point x="147" y="-83"/>
      <point x="147" y="-62" type="curve" smooth="yes"/>
      <point x="147" y="-31"/>
      <point x="180" y="-13"/>
      <point x="203" y="0" type="curve"/>
    </contour>
    <contour>
      <point x="203" y="10" type="move" name="_ogonek"/>
    </contour>
  </outline>
</glyph>
<glyph name="hungarumlaut" format="1">
  <advance width="555"/>
  <unicode hex="02DD"/>
  <outline>
    <contour>
      <point x="370" y="720" type="line"/>
      <point x="258" y="575" type="line"/>
      <point x="376" y="575" type="line"/>
      <point x="522" y="717" type="line"/>
      <point x="521" y="720" type="line"/>
    </contour>
    <contour>
      <point x="143" y="720" type="line"/>
      <point x="31" y="575" type="line"/>
      <point x="149" y="575" type="line"/>
      <point x="295" y="717" type="line"/>
      <point x="294" y="720" type="line"/>
    </contour>
    <contour>
      <point x="207" y="511" type="move" name="_top"/>
    </contour>
  </outline>
</glyph>
<glyph name="uni0326" format="1">
  <advance width="286"/>
  <unicode hex="0326"/>
  <outline>
    <contour>
      <point x="1" y="-20" type="line"/>
      <point x="-20" y="-171" type="line"/>
      <point x="65" y="-171" type="line"/>
      <point x="37" y="-250" type="line"/>
      <point x="131" y="-250" type="line"/>
      <point x="175" y="-139" type="line"/>
      <point x="192" y="-20" type="line"/>
    </contour>
    <contour>
      <point x="100" y="0" type="move" name="_bottom"/>
    </contour>
  </outline>
</glyph>
<glyph name="emdash" format="1">
  <advance width="1015"/>
  <unicode hex="2014"/>
  <outline>
    <contour>
      <point x="60" y="354" type="line"/>
      <point x="38" y="196" type="line"/>
      <point x="947" y="196" type="line"/>
      <point x="970" y="354" type="line"/>
    </contour>
  </outline>
</glyph>
<glyph name="quoteleft" format="1">
  <advance width="272"/>
  <unicode hex="2018"/>
  <outline>
    <contour>
      <point x="147" y="686" type="line"/>
      <point x="71" y="499" type="line"/>
      <point x="48" y="338" type="line"/>
      <point x="239" y="338" type="line"/>
      <point x="265" y="521" type="line"/>
      <point x="181" y="521" type="line"/>
      <point x="241" y="686" type="line"/>
    </contour>
  </outline>
</glyph>
<glyph name="quotedblright" format="1">
  <advance width="513"/>
  <unicode hex="201D"/>
  <outline>
    <contour>
      <point x="339" y="686" type="line"/>
      <point x="313" y="503" type="line"/>
      <point x="397" y="503" type="line"/>
      <point x="337" y="338" type="line"/>
      <point x="431" y="338" type="line"/>
      <point x="507" y="525" type="line"/>
      <point x="530" y="686" type="line"/>
    </contour>
    <contour>
      <point x="91" y="686" type="line"/>
      <point x="65" y="503" type="line"/>
      <point x="149" y="503" type="line"/>
      <point x="89" y="338" type="line"/>
      <point x="183" y="338" type="line"/>
      <point x="259" y="525" type="line"/>
      <point x="282" y="686" type="line"/>
    </contour>
  </outline>
</glyph>
<glyph name="ellipsis" format="1">
  <advance width="953"/>
  <unicode hex="2026"/>
  <outline>
    <contour>
      <point x="699" y="183" type="line"/>
      <point x="674" y="0" type="line"/>
      <point x="865" y="0" type="line"/>
      <point x="890" y="183" type="line"/>
    </contour>
    <contour>
      <point x="33" y="183" type="line"/>
      <point x="8" y="0" type="line"/>
      <point x="199" y="0" type="line"/>
      <point x="224" y="183" type="line"/>
    </contour>
    <contour>
      <point x="366" y="183" type="line"/>
      <point x="341" y="0" type="line"/>
      <point x="532" y="0" type="line"/>
      <point x="557" y="183" type="line"/>
    </contour>
  </outline>
</glyph>
<glyph name="guilsinglleft" format="1">
  <advance width="261"/>
  <unicode hex="2039"/>
  <outline>
    <contour>
      <point x="181" y="511" type="line"/>
      <point x="37" y="337" type="line"/>
      <point x="132" y="163" type="line"/>
      <point x="206" y="163" type="line"/>
      <point x="146" y="337" type="line"/>
      <point x="255" y="511" type="line"/>
    </contour>
  </outline>
</glyph>
<glyph name="fraction" format="1">
  <advance width="482"/>
  <unicode hex="2044"/>
  <outline>
    <contour>
      <point x="465" y="686" type="line"/>
      <point x="-51" y="0" type="line"/>
      <point x="38" y="0" type="line"/>
      <point x="551" y="686" type="line"/>
    </contour>
  </outline>
</glyph>
<glyph name="uni2113" format="1">
  <advance width="539"/>
  <unicode hex="2113"/>
  <outline>
    <contour>
      <point x="247" y="230" type="line"/>
      <point x="465" y="230"/>
      <point x="543" y="387"/>
      <point x="543" y="521" type="curve" smooth="yes"/>
      <point x="543" y="641"/>
      <point x="481" y="700"/>
      <point x="361" y="700" type="curve" smooth="yes"/>
      <point x="222" y="700"/>
      <point x="130" y="620"/>
      <point x="109" y="467" type="curve" smooth="yes"/>
      <point x="101" y="409" type="line"/>
      <point x="300" y="417" type="line"/>
      <point x="307" y="467" type="line" smooth="yes"/>
      <point x="316" y="531"/>
      <point x="346" y="565"/>
      <point x="387" y="565" type="curve" smooth="yes"/>
      <point x="416" y="565"/>
      <point x="436" y="548"/>
      <point x="436" y="495" type="curve" smooth="yes"/>
      <point x="436" y="425"/>
      <point x="401" y="325"/>
      <point x="260" y="325" type="curve"/>
    </contour>
    <contour>
      <point x="5" y="229" type="line"/>
      <point x="227" y="229" type="line"/>
      <point x="240" y="326" type="line"/>
      <point x="18" y="326" type="line"/>
    </contour>
    <contour>
      <point x="109" y="467" type="line"/>
      <point x="68" y="170" type="line" smooth="yes"/>
      <point x="64" y="139"/>
      <point x="63" y="129"/>
      <point x="63" y="118" type="curve" smooth="yes"/>
      <point x="63" y="32"/>
      <point x="139" y="-11"/>
      <point x="236" y="-11" type="curve" smooth="yes"/>
      <point x="305" y="-11"/>
      <point x="374" y="6"/>
      <point x="415" y="31" type="curve"/>
      <point x="431" y="143" type="line"/>
      <point x="405" y="130"/>
      <point x="360" y="111"/>
      <point x="324" y="111" type="curve" smooth="yes"/>
      <point x="299" y="111"/>
      <point x="266" y="121"/>
      <point x="266" y="164" type="curve" smooth="yes"/>
      <point x="266" y="171"/>
      <point x="267" y="180"/>
      <point x="269" y="194" type="curve" smooth="yes"/>
      <point x="307" y="467" type="line"/>
    </contour>
  </outline>
</glyph>
<glyph name="trademark" format="1">
  <advance width="1007"/>
  <unicode hex="2122"/>
  <outline>
    <contour>
      <point x="802" y="686" type="line"/>
      <point x="714" y="454" type="line"/>
      <point x="710" y="454" type="line"/>
      <point x="686" y="686" type="line"/>
      <point x="486" y="686" type="line"/>
      <point x="431" y="288" type="line"/>
      <point x="543" y="288" type="line"/>
      <point x="579" y="590" type="line"/>
      <point x="583" y="563" type="line"/>
      <point x="614" y="288" type="line"/>
      <point x="754" y="288" type="line"/>
      <point x="861" y="563" type="line"/>
      <point x="865" y="563" type="line"/>
      <point x="825" y="288" type="line"/>
      <point x="947" y="288" type="line"/>
      <point x="1002" y="686" type="line"/>
    </contour>
    <contour>
      <point x="101" y="686" type="line"/>
      <point x="88" y="590" type="line"/>
      <point x="202" y="590" type="line"/>
      <point x="160" y="288" type="line"/>
      <point x="282" y="288" type="line"/>
      <point x="324" y="590" type="line"/>
      <point x="438" y="590" type="line"/>
      <point x="451" y="686" type="line"/>
    </contour>
  </outline>
</glyph>
<glyph name="minus" format="1">
  <advance width="615"/>
  <unicode hex="2212"/>
  <outline>
    <contour>
      <point x="61" y="363" type="line"/>
      <point x="40" y="213" type="line"/>
      <point x="552" y="213" type="line"/>
      <point x="573" y="363" type="line"/>
    </contour>
  </outline>
</glyph>
<glyph name="radical" format="1">
  <advance width="736"/>
  <unicode hex="221A"/>
  <outline>
    <contour>
      <point x="675" y="829" type="line"/>
      <point x="378" y="124" type="line" smooth="yes"/>
      <point x="363" y="89"/>
      <point x="353" y="57"/>
      <point x="342" y="32" type="curve"/>
      <point x="335" y="60"/>
      <point x="330" y="89"/>
      <point x="322" y="120" type="curve" smooth="yes"/>
      <point x="245" y="427" type="line"/>
      <point x="-8" y="328" type="line"/>
      <point x="13" y="236" type="line"/>
      <point x="103" y="271" type="line"/>
      <point x="232" y="-153" type="line"/>
      <point x="392" y="-153" type="line"/>
      <point x="824" y="829" type="line"/>
    </contour>
  </outline>
</glyph>
<glyph name="integral" format="1">
  <advance width="318"/>
  <unicode hex="222B"/>
  <outline>
    <contour>
      <point x="283" y="751" type="line" smooth="yes"/>
      <point x="215" y="751"/>
      <point x="137" y="716"/>
      <point x="126" y="639" type="curve" smooth="yes"/>
      <point x="115" y="559"/>
      <point x="95" y="365"/>
      <point x="76" y="190" type="curve"/>
      <point x="42" y="-141" type="line"/>
      <point x="37" y="-180"/>
      <point x="-20" y="-182"/>
      <point x="-47" y="-182" type="curve"/>
      <point x="-57" y="-250" type="line"/>
      <point x="23" y="-250" type="line" smooth="yes"/>
      <point x="91" y="-250"/>
      <point x="169" y="-215"/>
      <point x="180" y="-138" type="curve"/>
      <point x="190" y="-60"/>
      <point x="212" y="136"/>
      <point x="230" y="311" type="curve" smooth="yes"/>
      <point x="264" y="642" type="line" smooth="yes"/>
      <point x="268" y="682"/>
      <point x="327" y="683"/>
      <point x="354" y="683" type="curve"/>
      <point x="364" y="751" type="line"/>
    </contour>
  </outline>
</glyph>
<glyph name="lozenge" format="1">
  <advance width="535"/>
  <unicode hex="25CA"/>
  <outline>
    <contour>
      <point x="253" y="686" type="line"/>
      <point x="33" y="343" type="line"/>
      <point x="156" y="0" type="line"/>
      <point x="295" y="0" type="line"/>
      <point x="516" y="343" type="line"/>
      <point x="392" y="686" type="line"/>
    </contour>
    <contour>
      <point x="382" y="343" type="line"/>
      <point x="244" y="121" type="line"/>
      <point x="169" y="343" type="line"/>
      <point x="307" y="565" type="line"/>
    </contour>
  </outline>
</glyph>
<glyph name="fl" format="1">
  <advance width="704"/>
  <unicode hex="FB02"/>
  <outline>
    <contour>
      <point x="229" y="728"/>
      <point x="144" y="689"/>
      <point x="129" y="577" type="curve" smooth="yes"/>
      <point x="120" y="511" type="line"/>
      <point x="56" y="511" type="line"/>
      <point x="36" y="369" type="line"/>
      <point x="100" y="369" type="line"/>
      <point x="49" y="4" type="line"/>
      <point x="42" y="-36"/>
      <point x="26" y="-65"/>
      <point x="-18" y="-65" type="curve" smooth="yes"/>
      <point x="-35" y="-65"/>
      <point x="-62" y="-60"/>
      <point x="-78" y="-53" type="curve"/>
      <point x="-94" y="-165" type="line"/>
      <point x="-62" y="-181"/>
      <point x="1" y="-187"/>
      <point x="37" y="-187" type="curve" smooth="yes"/>
      <point x="143" y="-187"/>
      <point x="228" y="-136"/>
      <point x="243" y="-26" type="curve" smooth="yes"/>
      <point x="298" y="369" type="line"/>
      <point x="418" y="369" type="line"/>
      <point x="438" y="511" type="line"/>
      <point x="318" y="511" type="line"/>
      <point x="326" y="559"/>
      <point x="325" y="606"/>
      <point x="388" y="606" type="curve" smooth="yes"/>
      <point x="407" y="606"/>
      <point x="432" y="601"/>
      <point x="449" y="596" type="curve"/>
      <point x="464" y="706" type="line"/>
      <point x="433" y="722"/>
      <point x="368" y="728"/>
      <point x="334" y="728" type="curve" smooth="yes"/>
    </contour>
    <contour>
      <point x="516" y="720" type="line"/>
      <point x="416" y="0" type="line"/>
      <point x="613" y="0" type="line"/>
      <point x="714" y="720" type="line"/>
    </contour>
  </outline>
</glyph>
